<?xml version="1.0" standalone="yes"?>
<svg xmlns="http://www.w3.org/2000/svg" width="1110" height="560">
<path style="fill:#d87d4c; stroke:none;" d="M0 0L0 560L116 560L116 265L116 184C116 175.152 112.891 158.963 117.179 151.093C120.659 144.706 131.65 142.333 138 139.95C155.495 133.384 172.601 125.634 190 118.797C207.721 111.834 225.21 104.371 243 97.5756C252.006 94.1359 260.183 89.1062 270 88.1713C300.889 85.2297 333.063 97.6295 364 97.5301C372.169 97.5038 380.654 92.9672 389 92.1698C409.783 90.1839 429.156 95.4302 448 103.765C460.077 109.107 477.854 109.127 491 110.025C495.568 110.337 506.048 109.551 509.061 113.434C514.032 119.84 509.816 139.899 510.015 148C510.585 171.274 514.272 194.789 513.996 218C513.904 225.792 511.63 233.285 511.09 241C507.919 286.237 510.343 332.845 510.981 378C511.839 438.613 511 499.358 511 560L1110 560L1110 0L0 0z"/>
<path style="fill:#5c5e62; stroke:none;" d="M250 94L250 95L278 89C269.492 85.4298 257.782 90.3606 250 94z"/>
<path style="fill:#1b1c1e; stroke:none;" d="M425 558L423 546C416.812 545.439 404.725 547.502 405 539L398 545L397 540C384.04 548.564 370.14 559.55 355 548C367.861 550.975 374.991 551.317 387 545L387 544L382 541C378.037 547.09 368.525 543.879 368 537L367 537L367 543L362 541L354 542C354.82 539.558 354.498 535.141 356.537 533.434C362.208 528.684 379.278 531.852 385 535L386 532L388 532L389 542L401 531L401 538L410 531L411 532L409 538C421.239 535.57 421.289 531.933 423 520L420 515C403.499 518.404 387.388 519.518 371 514.561C310.112 496.144 281.4 422.137 311.309 367C325.004 341.752 349.691 324.861 378 320.439C387.186 319.004 397.056 321.644 406 319C398.708 313.805 386.513 313.738 378 310.561C363.421 305.121 349.881 295.003 339.015 283.996C288.036 232.358 285.029 130.638 361 99C351.318 93.2002 333.167 95.0365 322 93.7145C305.873 91.8055 286.111 87.202 270 89.2894C238.655 93.3505 206.19 112.874 177 124.551C163.522 129.942 150.305 135.788 137 141.576C132.002 143.75 124.031 145.289 120.938 150.108C116.252 157.407 118 168.789 118 177L118 237L118 466L118 534C118 539.779 115.437 553.999 119.742 558.397C123.178 561.906 133.465 560 138 560L191 560L356 560L402 560C409.498 560 418.112 561.315 425 558z"/>
<path style="fill:#5c5e62; stroke:none;" d="M279 89L279 90L288 90L279 89M289 90L289 91L298 91L289 90M299 91L299 92L309 92L299 91M309 92L309 93L320 93L309 92z"/>
<path style="fill:#989a9d; stroke:none;" d="M366 97L366 98L368 98L368 99C356.474 101.647 348.178 115.781 342.001 125C328.758 144.765 320.091 166.976 319.039 191C318.416 205.235 321.883 218.902 322 233C317.021 229.066 316.186 223.633 313.87 218C304.918 196.235 311.675 173.146 314 151C301.907 160.557 301.476 188.004 302.83 202C306.03 235.064 320.336 264.615 344 287.996C353.857 297.735 368.003 308.59 382 311L382 310C376.203 308.331 368.394 305.511 364.6 300.561C361.887 297.02 363.261 292.065 362.008 287.996C359.845 280.974 355.207 274.172 351.319 268C325.24 226.599 314.543 170.304 351.09 131C359.989 121.429 369.646 113.987 381 107.569C393.283 100.626 404.682 94 419 94C403.198 87.1837 381.731 93.3607 366 97z"/>
<path style="fill:#5c5e62; stroke:none;" d="M320 93L320 94L330 94L320 93M331 94L331 95L337 95L331 94z"/>
<path style="fill:#e0e1e3; stroke:none;" d="M503 262L504 262L503 560L510 560C510 457.384 507.745 354.518 509.004 252C509.148 240.279 513.942 228.954 513.999 217C514.067 202.91 510.203 189.809 509.093 176C508.036 162.845 510 149.234 510 136C510 129.56 513.209 113.425 505 112L505 165C490.702 144.92 481.268 125.075 460 110.671C446.224 101.34 427.093 92.6931 410 94.0934C402.265 94.727 395.754 99.6385 389 102.975C365.412 114.63 344.94 131.131 334.465 156C316.452 198.76 334.297 238.832 355.573 276C357.886 280.042 360.716 284.493 361.975 289C363.381 294.03 361.741 299.111 366.148 302.945C380.31 315.269 405.395 316.837 423 316.039C437.814 315.368 453.708 311.685 466 302.996C481.152 292.285 495.401 279.39 503 262z"/>
<path style="fill:#989a9d; stroke:none;" d="M420 94L420 95L423 95L420 94z"/>
<path style="fill:#5c5e62; stroke:none;" d="M248 95L249 96L248 95M338 95L338 96L345 96L338 95z"/>
<path style="fill:#989a9d; stroke:none;" d="M424.667 95.3333L425.333 95.6667L424.667 95.3333z"/>
<path style="fill:#5c5e62; stroke:none;" d="M245.667 96.3333L246.333 96.6667L245.667 96.3333M349 96L349 97L354 97L349 96z"/>
<path style="fill:#989a9d; stroke:none;" d="M428.667 96.3333L429.333 96.6667L428.667 96.3333z"/>
<path style="fill:#5c5e62; stroke:none;" d="M243 97L244 98L243 97M358 97L358 98L361 98L361 99C305.103 115.103 292.175 188.847 308.657 236C313.433 249.666 321.059 268.186 333 277C329.094 267.713 321.533 260.06 316.97 251C303.661 224.572 291.59 176.14 314 151C309.669 171.235 307.592 191.521 311.619 212C312.904 218.534 315.879 229.798 322 233C321.962 219.239 318.432 205.869 319.039 192C320.113 167.49 329.116 145.105 342.67 125C349.05 115.536 356.87 103.085 368 99L358 97z"/>
<path style="fill:#989a9d; stroke:none;" d="M432 97L433 98L432 97z"/>
<path style="fill:#5c5e62; stroke:none;" d="M240.667 98.3333L241.333 98.6667L240.667 98.3333z"/>
<path style="fill:#989a9d; stroke:none;" d="M435 98L436 99L435 98z"/>
<path style="fill:#5c5e62; stroke:none;" d="M237.667 99.3333L238.333 99.6667L237.667 99.3333M235.667 100.333L236.333 100.667L235.667 100.333z"/>
<path style="fill:#989a9d; stroke:none;" d="M440 100L441 101L440 100z"/>
<path style="fill:#5c5e62; stroke:none;" d="M232.667 101.333L233.333 101.667L232.667 101.333M230.667 102.333L231.333 102.667L230.667 102.333z"/>
<path style="fill:#989a9d; stroke:none;" d="M445 102L446 103L445 102z"/>
<path style="fill:#5c5e62; stroke:none;" d="M227.667 103.333L228.333 103.667L227.667 103.333M224.667 104.333L225.333 104.667L224.667 104.333M222.667 105.333L223.333 105.667L222.667 105.333M220.667 106.333L221.333 106.667L220.667 106.333z"/>
<path style="fill:#989a9d; stroke:none;" d="M453 106L453 107L463 113L453 106z"/>
<path style="fill:#5c5e62; stroke:none;" d="M455 106L455 107C466.612 114.899 477.334 124.043 486.195 135C491.065 141.022 495.222 151.291 502 155L501.086 125.996L499.258 114.147L487 109.59L455 106M217.667 107.333L218.333 107.667L217.667 107.333M214 108L214 109L217 109L214 108M212.667 109.333L213.333 109.667L212.667 109.333M210.667 110.333L211.333 110.667L210.667 110.333z"/>
<path style="fill:#989a9d; stroke:none;" d="M492 110L492 111L496 111L492 110z"/>
<path style="fill:#5c5e62; stroke:none;" d="M207 111L207 112L210 112L207 111z"/>
<path style="fill:#989a9d; stroke:none;" d="M497 111C504.199 123.139 502 141.153 502 155L498 151L497 151L504 165L505 165L505 126C505 121.259 503.598 114.854 508 112L497 111z"/>
<path style="fill:#5c5e62; stroke:none;" d="M205.667 112.333L206.333 112.667L205.667 112.333z"/>
<path style="fill:#989a9d; stroke:none;" d="M509.333 112.667L509.667 113.333L509.333 112.667z"/>
<path style="fill:#5c5e62; stroke:none;" d="M203.667 113.333L204.333 113.667L203.667 113.333z"/>
<path style="fill:#989a9d; stroke:none;" d="M464 113L465 114L464 113z"/>
<path style="fill:#5c5e62; stroke:none;" d="M200.667 114.333L201.333 114.667L200.667 114.333z"/>
<path style="fill:#989a9d; stroke:none;" d="M465 114L466 115L465 114z"/>
<path style="fill:#5c5e62; stroke:none;" d="M198.667 115.333L199.333 115.667L198.667 115.333z"/>
<path style="fill:#989a9d; stroke:none;" d="M466 115L467 116L466 115z"/>
<path style="fill:#5c5e62; stroke:none;" d="M195.667 116.333L196.333 116.667L195.667 116.333z"/>
<path style="fill:#989a9d; stroke:none;" d="M467 116L468 117L467 116M510 116L510 121L511 121L510 116z"/>
<path style="fill:#5c5e62; stroke:none;" d="M193.667 117.333L194.333 117.667L193.667 117.333z"/>
<path style="fill:#989a9d; stroke:none;" d="M469 117L470 118L469 117z"/>
<path style="fill:#5c5e62; stroke:none;" d="M190.667 118.333L191.333 118.667L190.667 118.333z"/>
<path style="fill:#989a9d; stroke:none;" d="M470 118L471 119L470 118z"/>
<path style="fill:#5c5e62; stroke:none;" d="M188.667 119.333L189.333 119.667L188.667 119.333z"/>
<path style="fill:#989a9d; stroke:none;" d="M471 119L472 120L471 119z"/>
<path style="fill:#5c5e62; stroke:none;" d="M185 120L185 121L188 121L185 120z"/>
<path style="fill:#989a9d; stroke:none;" d="M472 120L473 121L472 120z"/>
<path style="fill:#5c5e62; stroke:none;" d="M182 121L182 122L185 122L182 121z"/>
<path style="fill:#989a9d; stroke:none;" d="M473 121L474 122L473 121z"/>
<path style="fill:#5c5e62; stroke:none;" d="M180.667 122.333L181.333 122.667L180.667 122.333M265 122C263.074 132.409 265 144.327 265 155C265 179.428 265.277 203.56 264.996 228C264.117 304.345 263.811 380.644 262.996 457C262.723 482.614 262 508.305 262 534C262 541.557 258.534 557.026 268 559C265.758 525.952 269 492.144 269 459C269 382.572 268.908 306.38 268.004 230C267.688 203.302 267.875 176.625 267.38 150C267.248 142.862 271.313 126.806 265 122z"/>
<path style="fill:#989a9d; stroke:none;" d="M474 122L475 123L474 122z"/>
<path style="fill:#5c5e62; stroke:none;" d="M178.667 123.333L179.333 123.667L178.667 123.333z"/>
<path style="fill:#989a9d; stroke:none;" d="M475 123L476 124L475 123z"/>
<path style="fill:#5c5e62; stroke:none;" d="M175 124L175 125L178 125L175 124z"/>
<path style="fill:#989a9d; stroke:none;" d="M476 124L477 125L476 124z"/>
<path style="fill:#5c5e62; stroke:none;" d="M172 125L172 126L175 126L172 125z"/>
<path style="fill:#989a9d; stroke:none;" d="M477 125L478 126L477 125z"/>
<path style="fill:#5c5e62; stroke:none;" d="M170.667 126.333L171.333 126.667L170.667 126.333z"/>
<path style="fill:#989a9d; stroke:none;" d="M478 126L479 127L478 126M510.333 126.667L510.667 127.333L510.333 126.667z"/>
<path style="fill:#5c5e62; stroke:none;" d="M165 128L165 129L170 128L165 128z"/>
<path style="fill:#989a9d; stroke:none;" d="M479 127L480 128L479 127M480 128L481 129L480 128z"/>
<path style="fill:#5c5e62; stroke:none;" d="M163.667 129.333L164.333 129.667L163.667 129.333z"/>
<path style="fill:#989a9d; stroke:none;" d="M481 129L482 130L481 129z"/>
<path style="fill:#5c5e62; stroke:none;" d="M158 131L158 132L163 131L158 131z"/>
<path style="fill:#989a9d; stroke:none;" d="M482 130L483 131L482 130M483 131L484 132L483 131z"/>
<path style="fill:#5c5e62; stroke:none;" d="M155 132L155 133L158 133L155 132z"/>
<path style="fill:#989a9d; stroke:none;" d="M484.333 132.667L484.667 133.333L484.333 132.667z"/>
<path style="fill:#5c5e62; stroke:none;" d="M153.667 133.333L154.333 133.667L153.667 133.333M151.667 134.333L152.333 134.667L151.667 134.333z"/>
<path style="fill:#989a9d; stroke:none;" d="M485 134L486 135L485 134z"/>
<path style="fill:#5c5e62; stroke:none;" d="M146 136L146 137L151 136L146 136z"/>
<path style="fill:#989a9d; stroke:none;" d="M486 135L487 136L486 135M487 136L488 137L487 136z"/>
<path style="fill:#5c5e62; stroke:none;" d="M144.667 137.333L145.333 137.667L144.667 137.333z"/>
<path style="fill:#989a9d; stroke:none;" d="M488.333 137.667L488.667 138.333L488.333 137.667z"/>
<path style="fill:#5c5e62; stroke:none;" d="M116 560L120 560C116.2 549.573 118 536.981 118 526L118 460L118 237L118 176C118 168.057 116.421 156.896 121.564 150.108C125.954 144.313 137.416 141.701 144 139C137.86 137.297 119.28 144.998 116.742 151.093C113.947 157.809 116 168.794 116 176L116 233L116 560z"/>
<path style="fill:#989a9d; stroke:none;" d="M489 139L490 140L489 139M490 140L492 143L490 140M492 143L493 144L492 143M493 144L494 148L495 148L493 144M314 148L315 149L314 148M495 148L497 151L495 148M510 153L510 183L511 183L510 153M440 245C454.741 252.988 467.434 245.869 473.957 231C480.594 215.868 480.001 196.637 470.187 183.043C462.563 172.483 442.042 175.954 443.416 191C444.199 199.577 447.48 207.083 447.251 215.985C446.989 226.139 441.305 234.891 440 245M369 203L370 203C380.639 190.253 400.269 203.13 398.8 218C397.113 235.086 380.147 235.776 373 222C371.847 230.644 386.477 238.748 394 237.807C402.316 236.767 410.851 223.825 411.814 216C412.972 206.595 409.999 194.121 400.995 189.558C390.754 184.367 371.321 191.502 369 203z"/>
<path style="fill:#5c5e62; stroke:none;" d="M369 206L370 206C378.043 189.167 400.863 205.268 397.463 220C395.811 227.156 387.116 235.092 380.016 229.683C377.614 227.853 375.812 225.376 374 223C375.123 240.823 398.612 231.587 398.945 217C399.289 201.953 372.983 186.683 369 206z"/>
<path style="fill:#1b1c1e; stroke:none;" d="M378 198.548C360.924 202.259 372.618 234.636 387 231.601C406.942 227.392 396.502 194.527 378 198.548z"/>
<path style="fill:#989a9d; stroke:none;" d="M368 204L368 212L369 212L368 204M513 204L514 205L513 204z"/>
<path style="fill:#5c5e62; stroke:none;" d="M369 209L369 214L370 214L369 209z"/>
<path style="fill:#989a9d; stroke:none;" d="M369.333 214.667L369.667 215.333L369.333 214.667z"/>
<path style="fill:#5c5e62; stroke:none;" d="M370 216L371 220L372 220L370 216z"/>
<path style="fill:#989a9d; stroke:none;" d="M370 218L371 219L370 218M371 220L372 221L371 220z"/>
<path style="fill:#5c5e62; stroke:none;" d="M372 221L373 222L372 221z"/>
<path style="fill:#989a9d; stroke:none;" d="M513 224L514 225L513 224M510 242C505.517 266.15 510 292.607 510 317L511 317L511 265L510 242z"/>
<path style="fill:#5c5e62; stroke:none;" d="M303 271L304 271C305.9 265.426 309.582 262.893 315 261C308.62 258.812 304.073 265.472 303 271z"/>
<path style="fill:#989a9d; stroke:none;" d="M503 262C488.494 285.15 468.991 307.207 441 313L441 314C457.57 311.976 471.525 301.354 483.94 291.005C487.012 288.443 495.458 283.52 496 280L499 280L499 281L492.711 327.91L485.429 351.17L487.125 365.424L484 393L483 393L481 387C477.702 387.118 476.882 383.796 475.833 381C472.896 373.168 469.066 366.147 464.5 359C455.136 344.343 435.265 329.18 418 326L419 329L422 328L422 329C418.984 330.005 417.295 330.821 418 328C413.605 328.367 410.451 328.675 409 324L417 326L417 325L398 322L395 325L395 324L397 322L393 321L390 324L391 321L386 326C389.433 324.896 391.285 324.555 393 328L397 327L397 328L394 329L399 332L401 326L397 327L397 326L405 324L404 329L400 332L423 340L423 341C412.812 337.07 403.029 334.03 392 334L412 342L412 343C395.77 343 377.364 345.02 363 353.349C320.185 378.175 314.732 437.514 349.17 471.829C367.553 490.148 393.102 495.965 418 494L418 495L381 501L381 502L410 503L410 504L379 504.536L354 498L335 484L328 487C335.21 497.207 348.586 504.938 360 509.603C411.435 530.624 479.399 498.426 482 438L483 438L479 459L480 459L483 456C483.826 465.595 485.17 482.579 480 491L480 492L480 493C482.693 496.866 480.578 501.511 480.571 506C480.551 518.191 478.954 529.925 478.183 542C477.872 546.876 478.053 557.019 483.329 559.397C488.477 561.716 497.405 560 503 560L503.004 351L504 289L503 262z"/>
<path style="fill:#5c5e62; stroke:none;" d="M333 277L334 278L333 277M334 278L346 290L334 278M496 280C496 283.175 479.652 293.442 476 296.333C457.804 310.739 438.031 316.54 415 317.5C408.279 317.78 401.721 315 395 315L395 316L406 319C394.228 321.803 381.93 319.053 370 321.884C337.282 329.649 307.101 356.457 302 391L303 391C306.461 376.042 314.258 359.191 326 349C326.662 361.084 314.365 373.198 310.519 385C301.645 412.229 305.21 455.757 328 476L328 477L326 480L327 480L332 477C327.04 465.872 318.862 456.794 314.425 445C301.732 411.261 313.73 383.464 333 356C323.116 351.123 331.463 340.682 337 351L363 337L363 338L349 346C364.999 339.339 379.672 336.81 397 339L397 340C386.81 340.811 376.219 343.938 367 348.32C307.663 376.524 315.183 461.164 370 488.752C379.472 493.52 389.294 496.911 400 497L400 498C378.493 500.718 360.632 492.906 342 483L345 487L335 480C336.603 489.521 348.432 491.686 354 498L387 505L387 504L381 502L381 501L418 495L418 494C392.723 495.085 367.727 490.016 349.17 470.91C315.188 435.925 319.967 373.813 367 351.796C380.949 345.267 396.784 343 412 343L412 342L392 334L423 341L423 340L400 332L404 329L405 324L397 326L397 327L401 326L399 332L394 329L397 328L397 327L393 328C391.861 324.124 389.301 324.532 386 326L388 324L391 321L390 324L393 321L397 322L395 324L395 325L398 322L417 325L417 326L409 324C409.871 329.21 413.454 329.113 418 328C418 330.626 419.763 329.791 422 329L422 328L418 326C436.142 331.913 453.351 344.203 464.254 360C468.019 365.456 474.94 386.256 481 387L483 393L484 393L487.071 341.285L492.66 329.41L494.184 309L499 280L496 280M346 290L347 291L346 290M347 291L348 292L347 291M348 292L349 293L348 292M349 293L350 294L349 293M350.667 294.333L351.333 294.667L350.667 294.333M352 295L353 296L352 295M353 296L354 297L353 296M354.667 297.333L355.333 297.667L354.667 297.333M356 298L357 299L356 298M357.667 299.333L358.333 299.667L357.667 299.333M359 300L360 301L359 300M360.667 301.333L361.333 301.667L360.667 301.333M362 302L363 303L362 302M363 303L366 305L363 303M366.667 305.333L367.333 305.667L366.667 305.333M369 306L370 307L369 306M371 307L372 308L371 307M372.667 308.333L373.333 308.667L372.667 308.333M375.667 309.333L376.333 309.667L375.667 309.333M377.667 310.333L378.333 310.667L377.667 310.333M380 311L380 312L383 312L380 311z"/>
<path style="fill:#989a9d; stroke:none;" d="M383.667 311.333L384.333 311.667L383.667 311.333z"/>
<path style="fill:#5c5e62; stroke:none;" d="M384 312L384 313L389 314L389 313L384 312z"/>
<path style="fill:#989a9d; stroke:none;" d="M386.667 312.333L387.333 312.667L386.667 312.333M389 313L389 314L392 314L389 313z"/>
<path style="fill:#5c5e62; stroke:none;" d="M390 314L390 315L394 315L390 314z"/>
<path style="fill:#989a9d; stroke:none;" d="M394 314L394 315L397 315L394 314M437 314L437 315L440 315L437 314M400.667 315.333L401.333 315.667L400.667 315.333M431 315L431 316L435 316L431 315M406 316L406 317L413 317L406 316M418 316L418 317L429 317L418 316M413 317L413 318L416 318L413 317M510 319L511 320L510 319z"/>
<path style="fill:#1b1c1e; stroke:none;" d="M410 321L410 322L421 324C417.697 320.26 414.742 320.163 410 321z"/>
<path style="fill:#989a9d; stroke:none;" d="M383 322L385 325L383 322M510 323L510 329L511 329L510 323M372 324L373 325L372 324M331 344C335.6 344.396 347.705 339.582 349 335L351 336L355 329L365 329L365 327C354.522 323.61 336.986 335.937 331 344M370 325L370 328L371 328L370 325M368 326L369 327L368 326z"/>
<path style="fill:#5c5e62; stroke:none;" d="M406 326L405 330L406 330L406 326M363 328L364 329L363 328z"/>
<path style="fill:#989a9d; stroke:none;" d="M389 329L390 330L389 329z"/>
<path style="fill:#5c5e62; stroke:none;" d="M408 329L409 330L408 329M409 331L410 332L409 331z"/>
<path style="fill:#1b1c1e; stroke:none;" d="M373 333L373 334L376 334L373 333M369.667 334.333L370.333 334.667L369.667 334.333M363.667 336.333L364.333 336.667L363.667 336.333M337 351C332.63 338.563 321.19 352.493 333 356C297.495 391.805 306.965 439.147 332 477C319.597 479.025 333.949 493.774 335 480L345 487L342 483C357.816 494.457 380.544 501.612 400 498L400 497C353.334 496.037 316.056 444.42 326.898 400C335.009 366.769 363.845 344.282 397 340L397 339C381.364 336.097 362.838 337.925 349 346L363 338C354.402 336.494 343.696 346.59 337 351z"/>
<path style="fill:#989a9d; stroke:none;" d="M510 340L510 344L511 344L510 340z"/>
<path style="fill:#5c5e62; stroke:none;" d="M423 341L423 342L430 345L430 344L423 341M412.667 343.333L413.333 343.667L412.667 343.333M431 345L433 347L431 345M434 347L435 348L434 347z"/>
<path style="fill:#e0e1e3; stroke:none;" d="M416 348L416 349C454.781 372.936 476.434 420.839 448.896 462C440.247 474.928 425.319 479.129 416 490L435 485L430 492C444.895 489.312 456.552 471.771 462.306 459C477.605 425.038 471.146 362.104 429 349L430 352L416 348z"/>
<path style="fill:#989a9d; stroke:none;" d="M324 349C306.505 374.611 300 396.041 300 427L301 427L301 410L302 410C302.013 433.351 310.678 450.532 318 472C308.299 460.194 303.882 442.88 302 428L301 428C301.436 449.131 312.814 467.018 324 484L325 484L328 477L328 476C308.485 451.393 300.969 417.195 310.205 387C313.995 374.61 327.47 361.532 326 349L324 349z"/>
<path style="fill:#5c5e62; stroke:none;" d="M333 349L332 352L333 349M363 359L363 360C372.967 357.694 381.594 353.522 392 356L388 359L391 360C382.954 372.673 369.633 379.707 360.954 391.576C351.389 404.656 351.509 427.725 360.209 441C366.375 450.408 373.863 458.237 382.999 464.83C388.493 468.794 397.243 472.641 398 480L404 480C398.297 484.959 388.14 483 381 483C405.455 499.994 441.815 474.314 452.741 453C481.336 397.215 421.425 323.242 363 359M438 350L441 353L438 350z"/>
<path style="fill:#1b1c1e; stroke:none;" d="M379 353L379 354C394.944 352.744 409.828 355.897 422 367L406 361L406 362L409 363L408 367L404 366C401.436 371.129 393.671 373.275 389 376C373.779 384.879 353.355 401.264 355 421C356.549 439.594 378.975 457.739 394 464C399.432 466.263 415.428 469.287 414 475L423 474L423 475L397 484C403.385 486.678 412.874 483.804 419 481.269C437.305 473.696 450.191 459.902 456.329 441C467.588 406.325 447.022 366.537 413 354.387C401.893 350.42 390.396 351.56 379 353z"/>
<path style="fill:#5c5e62; stroke:none;" d="M452 362L450 359L455 357L452 359L450 353C456.772 351.894 458.338 356.325 456 362C459.611 358.46 459.085 349.478 452.058 351.662C446.896 353.266 446.904 360.971 452 362z"/>
<path style="fill:#1b1c1e; stroke:none;" d="M450 353L453 354L452 359L455 357L450 359C455.866 367.26 462.711 349.643 450 353z"/>
<path style="fill:#989a9d; stroke:none;" d="M510 352L510 357L511 357L510 352z"/>
<path style="fill:#5c5e62; stroke:none;" d="M443 355L444 356L443 355z"/>
<path style="fill:#1b1c1e; stroke:none;" d="M449 355L449 359L450 359L449 355z"/>
<path style="fill:#5c5e62; stroke:none;" d="M445 357L446 358L445 357z"/>
<path style="fill:#989a9d; stroke:none;" d="M510.333 359.667L510.667 360.333L510.333 359.667z"/>
<path style="fill:#5c5e62; stroke:none;" d="M362 360L363 361L362 360M360 361L361 362L360 361z"/>
<path style="fill:#e0e1e3; stroke:none;" d="M341 381L345 373C320.527 391.067 325.155 433.664 339.414 456C344.739 464.342 350.358 472.463 360 476L360 475L353 468C361.208 473.533 367.927 477.71 378 477C368.699 451.682 342.728 436.775 349.68 406C353.474 389.201 367.553 378.766 372 362C357.659 362.69 350.156 370.519 341 381z"/>
<path style="fill:#5c5e62; stroke:none;" d="M453.667 362.333L454.333 362.667L453.667 362.333z"/>
<path style="fill:#989a9d; stroke:none;" d="M510 362L510 368L511 368L510 362z"/>
<path style="fill:#5c5e62; stroke:none;" d="M455 369L457 373L458 373L455 369z"/>
<path style="fill:#989a9d; stroke:none;" d="M455.333 370.667L455.667 371.333L455.333 370.667M456 372L457 373L456 372M510 372L510 385L511 385L510 372z"/>
<path style="fill:#5c5e62; stroke:none;" d="M458 374L459 375L458 374z"/>
<path style="fill:#989a9d; stroke:none;" d="M340 381L341 382L340 381z"/>
<path style="fill:#5c5e62; stroke:none;" d="M473 381L474 382L473 381z"/>
<path style="fill:#e0e1e3; stroke:none;" d="M466 385L467 386L466 385z"/>
<path style="fill:#5c5e62; stroke:none;" d="M475.333 386.667L475.667 387.333L475.333 386.667z"/>
<path style="fill:#989a9d; stroke:none;" d="M510 386L510 560L511 560L511 438L511 403L510 386z"/>
<path style="fill:#e0e1e3; stroke:none;" d="M467 389L469 392L467 389z"/>
<path style="fill:#5c5e62; stroke:none;" d="M479 390L481 392L481 390L479 390M301 392L301 397L302 397L301 392z"/>
<path style="fill:#e0e1e3; stroke:none;" d="M469 393C469.938 404.479 473.718 415.277 472.91 427C471.475 447.847 460.594 461.702 453 480C460.993 478.654 464.186 467.541 467.035 461C474.156 444.649 476.821 427.745 474.09 410.09C473.143 403.97 473.744 397.517 469 393z"/>
<path style="fill:#5c5e62; stroke:none;" d="M477.333 393.667L477.667 394.333L477.333 393.667M481 393L482 394L481 393z"/>
<path style="fill:#e0e1e3; stroke:none;" d="M303 397L304 398L303 397z"/>
<path style="fill:#5c5e62; stroke:none;" d="M478.333 397.667L478.667 398.333L478.333 397.667M300 398L300 404L301 404L300 398M479.333 402.667L479.667 403.333L479.333 402.667z"/>
<path style="fill:#e0e1e3; stroke:none;" d="M302.333 404.667L302.667 405.333L302.333 404.667z"/>
<path style="fill:#5c5e62; stroke:none;" d="M382.34 406.042C372.754 411.672 376.349 443.006 390.985 435.542C398.991 431.46 400.078 419.189 395.772 412.015C393.423 408.104 387.134 403.227 382.34 406.042M299 406L299 425L300 425L299 406M480 407L482 413L480 407z"/>
<path style="fill:#e0e1e3; stroke:none;" d="M301 410C301 428.454 302.766 458.941 318 472L305.285 438L301 410z"/>
<path style="fill:#989a9d; stroke:none;" d="M384 410C383.208 412.995 382.181 415.87 382.127 419C382.093 420.987 382.251 423.031 382.52 424.999C385.165 444.357 407.729 419.848 391.895 411.028C389.546 409.719 386.588 410.009 384 410z"/>
<path style="fill:#e0e1e3; stroke:none;" d="M475 412L476 413L475 412z"/>
<path style="fill:#5c5e62; stroke:none;" d="M481 415L481 418L482 418L481 415z"/>
<path style="fill:#e0e1e3; stroke:none;" d="M388 416L390 427C397.081 424.291 395.14 416.555 388 416z"/>
<path style="fill:#5c5e62; stroke:none;" d="M481 419L482 420L481 419M481 423L481 427L482 427L481 423M300 427L300 432L301 432L300 427M481 429L482 430L481 429M483 433L484 434L483 433M301 434L301 438L302 438L301 434M480 435L481 436L480 435M482 438C479.161 473.672 450.589 502.907 418 514L423 520C420.435 531.643 420.862 534.606 409 538L411 532L410 531L401 538L401 534L400 534L402 541L398 544L398 537L393 541L401 532L401 531L391 542L393 541L393 542L387 546C389.823 541.592 389.462 536.937 388 532L386 532L385 535C378.186 530.098 368.087 532 360 532L360 533C367.469 533 378.553 531.207 384 537L385 537L388 533L388 543L383 539L382 539L387 544L387 545C373.79 549.807 368.756 550.031 355 548C366.834 560.817 387.167 549.03 397 540L398 545L406 540L409 532L407 542L411 538L414 539L413 543L419 538L419 542L423 539L422 542L429 540L426 543L430 541C424.932 544.645 409.348 546.734 405 541L404 541C406.102 547.338 417.386 545.923 423 546L425 558L422 559L422 560L482 560C476.344 543.115 481.372 527.386 480.95 510C480.839 505.428 483.476 496.086 480 493L480 492L480 491L482 491L483 456L480 459L479 459C480.88 453.221 485.806 443.464 482 438M302.333 440.667L302.667 441.333L302.333 440.667M303.333 443.667L303.667 444.333L303.333 443.667M304.333 447.667L304.667 448.333L304.333 447.667M305.333 450.667L305.667 451.333L305.333 450.667M306 452L306 455L307 455L306 452M476 452L476 455L477 455L476 452M307.333 455.667L307.667 456.333L307.333 455.667M308.333 457.667L308.667 458.333L308.333 457.667M475 457L476 458L475 457M309.333 460.667L309.667 461.333L309.333 460.667M474 460L475 461L474 460M310.333 462.667L310.667 463.333L310.333 462.667M311.333 464.667L311.667 465.333L311.333 464.667M312 466L313 467L312 466z"/>
<path style="fill:#989a9d; stroke:none;" d="M351 466L353 468L351 466z"/>
<path style="fill:#5c5e62; stroke:none;" d="M313 468L314 469L313 468M458 468L456 472L457 472L458 468z"/>
<path style="fill:#989a9d; stroke:none;" d="M458.333 469.667L458.667 470.333L458.333 469.667z"/>
<path style="fill:#5c5e62; stroke:none;" d="M314 470L315 471L314 470z"/>
<path style="fill:#989a9d; stroke:none;" d="M456 470L457 471L456 470z"/>
<path style="fill:#5c5e62; stroke:none;" d="M315.333 471.667L315.667 472.333L315.333 471.667z"/>
<path style="fill:#989a9d; stroke:none;" d="M457 471L458 472L457 471z"/>
<path style="fill:#e0e1e3; stroke:none;" d="M318 472L320 475L318 472z"/>
<path style="fill:#5c5e62; stroke:none;" d="M316 473L317 474L316 473M317 474L318 475L317 474z"/>
<path style="fill:#e0e1e3; stroke:none;" d="M321 475L324 478L321 475z"/>
<path style="fill:#5c5e62; stroke:none;" d="M318 476L319 477L318 476M319.333 477.667L319.667 478.333L319.333 477.667M320 479L321 480L320 479M450 479L445 485L447 487L448 487L448 484L449 484L453 488L453 487L451 484L454 485L454 484L449 484C452.315 481.637 454.647 483.165 458 485L450 479M321 480L322 481L321 480M322 481L323 482L322 481M325 481L328 488L329 487L325 481M332.333 481.667L332.667 482.333L332.333 481.667M323.333 482.667L323.667 483.333L323.333 482.667z"/>
<path style="fill:#1b1c1e; stroke:none;" d="M449 484L454 484L454 485L451 484L453 487L453 488L449 484C447.461 488.861 454.546 493.223 456.824 487.853C458.845 483.09 451.71 480.919 449 484z"/>
<path style="fill:#989a9d; stroke:none;" d="M437 483L438 484L437 483M435 484L436 485L435 484z"/>
<path style="fill:#5c5e62; stroke:none;" d="M334 485L335 486L334 485z"/>
<path style="fill:#989a9d; stroke:none;" d="M442 485L440 488L442 485z"/>
<path style="fill:#5c5e62; stroke:none;" d="M443 485L444 486L443 485M333 486L334 487L333 486M442 486L443 487L442 486z"/>
<path style="fill:#e0e1e3; stroke:none;" d="M445 486L447 488L447 486L445 486z"/>
<path style="fill:#5c5e62; stroke:none;" d="M330.667 487.333L331.333 487.667L330.667 487.333z"/>
<path style="fill:#1b1c1e; stroke:none;" d="M345 487L353 493L353 492L345 487z"/>
<path style="fill:#5c5e62; stroke:none;" d="M441 487L442 488L441 487M328 488L329 489L328 488M440 488L441 489L440 488z"/>
<path style="fill:#e0e1e3; stroke:none;" d="M440 492L445 488L440 492z"/>
<path style="fill:#5c5e62; stroke:none;" d="M448 488L449 489L448 488M457 488L458 489L457 488M329 489L330 490L329 489M439 489L440 490L439 489M449 489L450 490L449 489M456 489L457 490L456 489M330 490L331 491L330 490M450.667 490.333L451.333 490.667L450.667 490.333M455 490L456 491L455 490M331 491L332 492L331 491M452.667 491.333L453.333 491.667L452.667 491.333M332 492L333 493L332 492z"/>
<path style="fill:#e0e1e3; stroke:none;" d="M438.333 492.667L438.667 493.333L438.333 492.667z"/>
<path style="fill:#5c5e62; stroke:none;" d="M333 493L334 494L333 493M334 494L335 495L334 494M336 495L337 496L336 495z"/>
<path style="fill:#e0e1e3; stroke:none;" d="M435.333 495.667L435.667 496.333L435.333 495.667z"/>
<path style="fill:#5c5e62; stroke:none;" d="M337 496L338 497L337 496M338.667 497.333L339.333 497.667L338.667 497.333M340 498L341 499L340 498M424 498L425 499L424 498z"/>
<path style="fill:#e0e1e3; stroke:none;" d="M433 498L434 499L433 498z"/>
<path style="fill:#5c5e62; stroke:none;" d="M341.667 499.333L342.333 499.667L341.667 499.333M343 500L344 501L343 500M344 501L345 502L344 501M411 502L411 503L417 502L411 502M345.667 502.333L346.333 502.667L345.667 502.333M347 503L348 504L347 503M388 504L388 505L410 504L388 504M349 504L350 505L349 504z"/>
<path style="fill:#1b1c1e; stroke:none;" d="M387 504L388 505L387 504z"/>
<path style="fill:#5c5e62; stroke:none;" d="M351 505L352 506L351 505M352 506L353 507L352 506M354 507L355 508L354 507M356.667 508.333L357.333 508.667L356.667 508.333M358.667 509.333L359.333 509.667L358.667 509.333M360 510L360 511L363 511L360 510M363.667 511.333L364.333 511.667L363.667 511.333M365.667 512.333L366.333 512.667L365.667 512.333M367 513L367 514L370 514L367 513M370 514L370 515L373 515L370 514M374 515L374 516L378 516L374 515M408 516L408 517L418 516L408 516M378 516L378 517L383 517L378 516M384 517L384 518L408 518L384 517M420 520L421 521L420 520M356 532L355 534L356 532z"/>
<path style="fill:#989a9d; stroke:none;" d="M358 540L355 541L355 542C361.203 543.382 362.518 538.813 358 535C359.615 538.653 360.313 540.657 356 542L356 541L359 541C356.749 534.75 357.922 533.7 364 536C359.964 530.076 353.526 533.51 358 540M393 541L398 537L398 542L402 541L398 534L401 534L401 533C396.889 532.907 394.523 537.585 393 541M408 532L408 535L409 535L408 532z"/>
<path style="fill:#e0e1e3; stroke:none;" d="M356 541L356 542C359.58 541.403 361.669 539.428 358 537L360 533L356 541M363 533L364 542L366 542L368 533L363 533z"/>
<path style="fill:#989a9d; stroke:none;" d="M368 533L364 542L364 543L370 533L368 533z"/>
<path style="fill:#e0e1e3; stroke:none;" d="M374 542L371 541L371 536L374 534C367.441 532.998 367.441 543.002 374 542z"/>
<path style="fill:#989a9d; stroke:none;" d="M373 533L374 534L373 533M371 536L375 539L373 543C377.217 542.096 376 537.644 376 534L377 534C377 537.644 375.783 542.096 380 543L379 534L383 535C378.965 531.983 375.002 533.57 371 536M386.667 533.333L387.333 533.667L386.667 533.333z"/>
<path style="fill:#e0e1e3; stroke:none;" d="M399 533L399 538L400 538L399 533M407 533L407 536L408 536L407 533M376 534L376 543L377 543L376 534M379 534L380 543L381 543L382 538L388 543L388 534L386 534L386 538L379 534z"/>
<path style="fill:#989a9d; stroke:none;" d="M406 534L407 540L408 540L406 534z"/>
<path style="fill:#5c5e62; stroke:none;" d="M354 535L355 536L354 535M359 535L363 543C364.746 538.792 363.56 535.761 359 535z"/>
<path style="fill:#1b1c1e; stroke:none;" d="M362 536L363 537L362 536z"/>
<path style="fill:#5c5e62; stroke:none;" d="M367 536C368.209 540.82 368.556 543.576 374 544L374 543L369 543L367 536M373.667 536.333L374.333 536.667L373.667 536.333z"/>
<path style="fill:#989a9d; stroke:none;" d="M383 536L384 537L383 536M385 536L384 538L386 538L385 536M404 536L402 540L403 540L404 536z"/>
<path style="fill:#5c5e62; stroke:none;" d="M355 537L356 538L355 537M355 540L358 540L357 538L355 540z"/>
<path style="fill:#989a9d; stroke:none;" d="M382 538L383 539L382 538z"/>
<path style="fill:#e0e1e3; stroke:none;" d="M406 538L406 543L407 543L406 538z"/>
<path style="fill:#989a9d; stroke:none;" d="M411 538L407 542L407 543L420 544L419 538L413 543L414 539L411 538M423 540L423 539L420 540C420.579 541.579 423.131 545.831 423 542C426.164 543.53 427.51 543.517 430 541L426 543L429 540L423 540M371 539L371 541L373 541L371 539z"/>
<path style="fill:#5c5e62; stroke:none;" d="M372 539L375 541L372 539z"/>
<path style="fill:#989a9d; stroke:none;" d="M381 539L381 543L382 543L381 539z"/>
<path style="fill:#e0e1e3; stroke:none;" d="M427 539L428 540L427 539z"/>
<path style="fill:#5c5e62; stroke:none;" d="M354.333 540.667L354.667 541.333L354.333 540.667z"/>
<path style="fill:#989a9d; stroke:none;" d="M383 540L384 541L383 540M405 540L407 544L405 540z"/>
<path style="fill:#e0e1e3; stroke:none;" d="M421 540L422 541L421 540z"/>
<path style="fill:#5c5e62; stroke:none;" d="M361 541L362 542L361 541z"/>
<path style="fill:#989a9d; stroke:none;" d="M384 541L385 542L384 541M392 541L387 546L392 541z"/>
<path style="fill:#e0e1e3; stroke:none;" d="M399 541L398 543L400 543L399 541M417 541L418 542L417 541M420 541L420 544L421 544L420 541z"/>
<path style="fill:#5c5e62; stroke:none;" d="M355 542L356 543L355 542M360 542L361 543L360 542M366 542L367 543L366 542z"/>
<path style="fill:#989a9d; stroke:none;" d="M369 542L370 543L369 542M385 542L386 543L385 542z"/>
<path style="fill:#e0e1e3; stroke:none;" d="M409 542L409 543L412 543L409 542M423 542L425 544L425 542L423 542z"/>
<path style="fill:#5c5e62; stroke:none;" d="M375 543L375 544L382 544L375 543z"/>
<path style="fill:#989a9d; stroke:none;" d="M398 543L399 544L398 543M386 546L384 547L384 548L386 546z"/>
</svg>
